<?xml version="1.0" encoding="UTF-8"?>
<svg width="104px" height="100px" viewBox="0 0 104 100" version="1.1" xmlns="http://www.w3.org/2000/svg" xmlns:xlink="http://www.w3.org/1999/xlink">
    <!-- Generator: Sketch 48.1 (47250) - http://www.bohemiancoding.com/sketch -->
    <title>logo-large</title>
    <desc>Created with Sketch.</desc>
    <defs></defs>
    <g id="v06" stroke="none" stroke-width="1" fill="none" fill-rule="evenodd" transform="translate(-598.000000, -4305.000000)">
        <g id="Group-20" transform="translate(0.000000, 4082.568931)" fill="#FFFFFF">
            <path d="M630.976042,322.391835 C611.944356,314.823917 598.490575,296.237821 598.490575,274.509425 C598.490575,246.061555 621.55213,223 650,223 C678.44787,223 701.509425,246.061555 701.509425,274.509425 C701.509425,292.353164 692.436219,308.077742 678.651686,317.321279 C678.26349,314.495548 677.340453,311.012313 675.598489,306.733875 C675.461855,305.788433 672.237292,300.032362 670.816298,298.113672 C668.821442,295.471997 666.689951,292.94155 664.476479,290.494525 C664.312519,290.327682 664.339845,290.216454 664.449153,290.049611 C665.24163,288.798292 666.334702,287.880657 667.564408,287.157672 C668.958076,286.351266 670.433723,285.795124 671.991351,285.433632 C672.647194,285.294596 673.330364,285.35021 673.986208,285.183368 C674.9973,284.960911 675.953738,284.627226 676.636908,283.793012 C677.429385,282.791957 677.702653,281.679672 677.238098,280.428353 C676.910176,279.538525 676.910176,278.676505 677.374732,277.842292 C677.456712,277.703256 677.538693,277.564221 677.675327,277.452992 C678.030575,277.147114 678.057902,276.813429 677.757307,276.451936 C677.675327,276.340708 677.566019,276.22948 677.456712,276.146058 C677.347405,276.062637 677.238098,275.979216 677.101464,275.895794 C677.156117,275.784566 677.265424,275.784566 677.347405,275.756759 C677.702653,275.589916 677.948595,275.339652 678.085229,274.950353 C678.167209,274.672282 678.194536,274.449825 677.921268,274.199561 C677.593346,273.92149 677.374732,273.53219 677.265424,273.087277 C677.12879,272.503327 677.101464,271.947185 677.620673,271.502271 C677.893941,271.252008 678.085229,270.946129 678.249189,270.612444 C678.987013,269.30551 678.604438,268.109805 677.292751,267.442434 C676.145025,266.858485 675.106607,266.079886 674.286803,265.051023 C674.122842,264.856373 674.095515,264.772952 674.368783,264.661723 C675.516509,264.21681 676.500274,263.521632 677.210771,262.353734 C676.800869,262.57619 676.500274,262.743033 676.145025,262.909876 C675.379875,263.271368 674.614724,263.521632 673.767593,263.605053 C673.548979,263.63286 673.439672,263.577246 673.385018,263.326982 C673.248384,262.77084 673.19373,262.186891 673.248384,261.602942 C673.248384,261.51952 673.248384,261.380485 673.357691,261.380485 C673.521652,261.936627 673.603633,262.298119 673.685613,262.631805 C673.767593,262.659612 673.658286,262.854261 673.822247,262.826454 C674.47809,258.877845 674.232149,255.040465 672.182639,251.508962 C670.925606,249.367815 669.204017,247.727196 667.12718,246.420262 C664.203211,244.557186 660.978648,243.444901 657.562798,243.055602 C655.322,242.777531 653.053875,242.805338 650.78575,242.944373 C648.435645,243.083409 646.112866,243.444901 643.844741,244.084465 C640.428891,245.085521 637.340962,246.72614 634.799569,249.312201 C632.258176,251.898262 630.645894,255.012657 629.74411,258.516353 C629.197574,260.601886 628.924305,262.743033 628.978959,264.967602 C628.596384,264.550495 628.213809,264.661723 627.803906,264.828566 C627.421331,264.995409 627.066083,265.245673 626.738161,265.495937 C626.601527,265.607165 626.464893,265.690586 626.300932,265.7462 C625.945684,265.885236 625.863703,266.246728 625.836376,266.580414 C625.80905,266.830678 625.699742,266.886292 625.508455,266.941906 C622.967062,267.525855 620.534976,268.387876 618.294178,269.750424 C615.014961,271.780343 612.71951,274.58886 611.817725,278.426241 C611.189209,281.151337 611.298516,283.904241 611.981686,286.60153 C612.145647,286.573723 612.063666,286.434688 612.063666,286.351266 C612.090993,285.961967 612.03634,285.54486 612.090993,285.155561 C612.336935,283.125642 613.102085,281.262566 614.031196,279.455104 C614.413772,278.732119 614.823674,278.009134 615.315556,277.341764 C615.260903,278.14817 615.042288,278.843348 614.878327,279.566332 C614.331791,282.124586 614.195157,284.738454 614.249811,287.352322 C614.277138,288.881713 614.304465,290.411104 614.577733,291.940495 C615.069615,294.749012 616.299321,297.223845 617.993583,299.448413 C620.644283,302.896494 624.00548,305.454748 627.77658,307.512474 C628.022521,307.65151 628.295789,307.762738 628.54173,307.901774 C628.705691,308.013002 628.814998,307.957388 628.896979,307.790545 C630.345299,305.649398 631.11045,303.341408 630.919162,300.72754 C630.782528,298.781043 630.099358,297.029195 629.115593,295.388576 C628.569057,294.498748 627.94054,293.692342 627.25737,292.858129 C628.842325,293.33085 630.399953,293.831378 632.039561,293.1362 C631.520352,292.997165 630.973816,292.885936 630.454607,292.719094 C628.405096,292.07953 626.656181,290.995053 625.426474,289.159784 C624.552017,287.825043 624.114788,286.351266 623.950827,284.794068 C623.650232,281.957743 624.169441,279.20484 624.961919,276.479743 C625.453801,274.78351 626.082318,273.170698 626.820141,271.557886 C626.929449,271.307622 627.038756,271.140779 627.366678,271.307622 C627.803906,271.502271 628.241135,271.41885 628.54173,271.001744 C628.651037,270.834901 628.733018,270.946129 628.842325,271.001744 C629.361534,271.279815 629.580149,271.2242 629.798763,270.668058 C629.880744,270.473409 629.962724,270.584637 630.044704,270.612444 C630.673221,270.946129 631.165104,271.41885 631.575006,271.974992 C632.39481,273.087277 632.804712,274.366403 632.995999,275.728952 C633.15996,276.869043 633.706496,277.842292 634.36234,278.759926 C635.837987,280.92888 637.668883,282.764149 639.554433,284.515997 C640.046315,284.988718 640.565525,285.433632 641.084734,285.878545 C641.931865,286.60153 642.150479,287.546972 642.041172,288.603642 C641.904538,290.105226 641.326401,291.487711 640.647505,292.774708 C635.152637,303.191442 632.112939,316.330525 630.976042,322.391835 Z" id="logo-large" transform="translate(650.000000, 272.695918) scale(-1, 1) translate(-650.000000, -272.695918) "></path>
        </g>
    </g>
</svg>