<?xml version="1.0" encoding="UTF-8"?>
<svg width="243px" height="43px" viewBox="0 0 243 43" version="1.1" xmlns="http://www.w3.org/2000/svg" xmlns:xlink="http://www.w3.org/1999/xlink">
    <title>Logo</title>
    <defs>
        <path d="M14.2887167,42.3212232 C6.19063317,39.1010336 0.46597722,31.1925506 0.46597722,21.9470025 C0.46597722,9.84228207 10.278792,0.0294672957 22.3835125,0.0294672957 C34.4882329,0.0294672957 44.3010477,9.84228207 44.3010477,21.9470025 C44.3010477,29.5396089 40.4403496,36.2305009 34.5749565,40.1636755 C34.4097779,38.9613104 34.0170209,37.4791754 33.2758062,35.6586777 C33.2176677,35.2563872 31.8455989,32.8071483 31.2409584,31.9907354 C30.3921362,30.8666885 29.4851755,29.78997 28.5433317,28.7487476 C28.4735655,28.6777552 28.4851932,28.6304269 28.531704,28.5594345 C28.8689073,28.0269912 29.3340154,27.6365329 29.8572619,27.328899 C30.4502747,26.9857689 31.0781706,26.7491275 31.7409496,26.5953105 C32.0200144,26.5361502 32.3107069,26.5598143 32.5897718,26.4888219 C33.0199967,26.3941653 33.4269663,26.2521804 33.7176588,25.8972183 C34.0548622,25.4712637 34.1711392,24.9979808 33.9734683,24.4655376 C33.8339358,24.0869113 33.8339358,23.720117 34.0316068,23.3651549 C34.0664899,23.3059945 34.101373,23.2468342 34.1595115,23.1995059 C34.3106716,23.0693531 34.3222993,22.9273682 34.1943946,22.7735513 C34.1595115,22.726223 34.1130007,22.6788947 34.0664899,22.6433985 C34.0199791,22.6079023 33.9734683,22.572406 33.9153298,22.5369098 C33.9385852,22.4895815 33.985096,22.4895815 34.0199791,22.4777495 C34.1711392,22.406757 34.2757885,22.3002684 34.333927,22.1346194 C34.3688101,22.0162987 34.3804378,21.9216421 34.2641608,21.8151534 C34.1246284,21.6968327 34.0316068,21.5311837 33.985096,21.3418706 C33.9269575,21.093397 33.9153298,20.8567556 34.1362561,20.6674425 C34.2525331,20.5609538 34.333927,20.430801 34.4036932,20.2888162 C34.7176412,19.7327088 34.5548533,19.2239297 33.9967237,18.9399599 C33.5083602,18.6914864 33.0665075,18.3601884 32.7176765,17.9224018 C32.6479103,17.8395772 32.6362826,17.804081 32.7525596,17.7567527 C33.2409231,17.5674396 33.6595203,17.2716378 33.9618406,16.7746908 C33.787425,16.8693473 33.6595203,16.9403398 33.5083602,17.0113322 C33.1827846,17.1651491 32.8572089,17.2716378 32.4967502,17.307134 C32.4037286,17.3189661 32.3572178,17.2953019 32.3339623,17.1888133 C32.2758238,16.9521719 32.2525684,16.7036983 32.2758238,16.4552248 C32.2758238,16.4197286 32.2758238,16.3605683 32.3223346,16.3605683 C32.3921009,16.5972097 32.426984,16.7510266 32.4618671,16.8930115 C32.4967502,16.9048436 32.4502394,16.9876681 32.5200056,16.975836 C32.7990704,15.2956818 32.6944211,13.6628558 31.8223435,12.1601827 C31.2874692,11.2491131 30.554924,10.5510209 29.6712187,9.99491352 C28.4270547,9.20216469 27.0549859,8.72888181 25.6015232,8.56323281 C24.6480517,8.44491209 23.6829524,8.45674416 22.7178532,8.51590452 C21.7178709,8.57506488 20.7295163,8.72888181 19.764417,9.00101947 C18.3109544,9.42697406 16.9970241,10.1250663 15.9156479,11.225449 C14.8342716,12.3258317 14.1482372,13.6510238 13.7645231,15.1418648 C13.5319691,16.0292702 13.415692,16.9403398 13.4389474,17.8869055 C13.2761596,17.7094245 13.1133718,17.7567527 12.9389563,17.8277452 C12.7761685,17.8987376 12.6250083,18.0052263 12.4854759,18.1117149 C12.4273374,18.1590432 12.3691989,18.1945394 12.2994327,18.2182036 C12.1482726,18.2773639 12.1133895,18.4311808 12.1017618,18.5731657 C12.0901341,18.6796544 12.0436233,18.7033185 11.9622294,18.7269826 C10.8808531,18.9754562 9.84598768,19.3422504 8.89251616,19.9220219 C7.49719198,20.7857632 6.52046506,21.9808024 6.13675091,23.6136284 C5.86931377,24.7731714 5.91582458,25.9445466 6.20651712,27.0922575 C6.27628333,27.0804255 6.24140022,27.0212651 6.24140022,26.9857689 C6.25302792,26.8201199 6.22977252,26.6426388 6.25302792,26.4769898 C6.35767724,25.6132486 6.68325288,24.8204997 7.07859473,24.051415 C7.24138255,23.7437812 7.41579807,23.4361473 7.6250967,23.1521776 C7.6018413,23.4953077 7.50881968,23.7911095 7.43905348,24.0987433 C7.20649945,25.187294 7.14836094,26.2995087 7.17161634,27.4117235 C7.18324404,28.0624875 7.19487174,28.7132514 7.31114876,29.3640154 C7.52044739,30.5590546 8.04369395,31.6121091 8.76461144,32.5586748 C9.89249849,34.0258517 11.3227058,35.1144024 12.9273286,35.9899757 C13.0319779,36.049136 13.1482549,36.0964643 13.2529042,36.1556247 C13.3226704,36.202953 13.3691812,36.1792888 13.4040643,36.1082964 C14.0203325,35.1972269 14.3459082,34.2151649 14.2645142,33.1029501 C14.2063757,32.2747051 13.9156832,31.5292845 13.4970859,30.8311923 C13.2645319,30.452566 12.9970948,30.1094359 12.7064022,29.7544737 C13.3808089,29.955619 14.0435879,30.1685963 14.74125,29.8727945 C14.5203237,29.8136341 14.2877696,29.7663058 14.0668433,29.6953134 C13.1947657,29.4231757 12.4505928,28.9617249 11.9273462,28.1808082 C11.5552598,27.6128687 11.3692166,26.9857689 11.2994504,26.3231729 C11.1715457,25.1163015 11.392472,23.9449264 11.7296753,22.7853833 C11.9389739,22.063627 12.2064111,21.3773668 12.520359,20.6911066 C12.5668698,20.584618 12.6133806,20.5136255 12.7529131,20.584618 C12.9389563,20.6674425 13.1249995,20.6319462 13.2529042,20.4544652 C13.299415,20.3834727 13.3342981,20.430801 13.3808089,20.4544652 C13.6017353,20.5727859 13.6947569,20.5491217 13.7877785,20.3124803 C13.8226616,20.2296558 13.8575447,20.2769841 13.8924278,20.2888162 C14.1598649,20.430801 14.3691636,20.6319462 14.5435791,20.8685877 C14.8924101,21.3418706 15.0668256,21.8861459 15.1482196,22.4659174 C15.2179858,22.9510324 15.4505398,23.3651549 15.7296046,23.7556132 C16.3575005,24.6785149 17.1365565,25.4594316 17.9388679,26.2048521 C18.1481665,26.4059974 18.3690929,26.5953105 18.5900192,26.7846237 C18.9504779,27.0922575 19.0434996,27.494548 18.9969887,27.9441667 C18.9388502,28.5830986 18.6928497,29.1713536 18.403976,29.7189775 C16.0658803,34.1513537 14.7724728,39.7421034 14.2887167,42.3212232 Z" id="path-1"></path>
    </defs>
    <g id="v06" stroke="none" stroke-width="1" fill="none" fill-rule="evenodd" transform="translate(-57.000000, -30.000000)">
        <g id="Group-3">
            <g id="Logo" transform="translate(57.162700, 29.548490)">
                <g id="Shape" transform="translate(0.125692, 0.547212)">
                    <mask id="mask-2" fill="white">
                        <use xlink:href="#path-1"></use>
                    </mask>
                    <use id="Combined-Shape" fill="#FFFFFF" transform="translate(22.383512, 21.175345) scale(-1, 1) translate(-22.383512, -21.175345) " xlink:href="#path-1"></use>
                </g>
                <text id="CRYPTOPRINT.IO" font-family="Circular-Bold, Circular" font-size="22.3999987" font-weight="bold" fill="#FFFFFF">
                    <tspan x="55.1907364" y="29.8201146">CRYPTOPRINT.IO</tspan>
                </text>
            </g>
        </g>
    </g>
</svg>