<?xml version="1.0" encoding="UTF-8"?>
<svg width="1600px" height="820px" viewBox="0 0 1600 820" version="1.1" xmlns="http://www.w3.org/2000/svg" xmlns:xlink="http://www.w3.org/1999/xlink">
    <!-- Generator: Sketch 47.1 (45422) - http://www.bohemiancoding.com/sketch -->
    <title>Layer 2 - Phase 3 - Front Data Placeholders</title>
    <desc>Created with Sketch.</desc>
    <defs>
        <path d="M21,0 L1079,0 C1090.59798,-2.13051432e-15 1100,9.40202025 1100,21 L1100,699 C1100,710.59798 1090.59798,720 1079,720 L21,720 C9.40202025,720 1.42034288e-15,710.59798 0,699 L0,21 L0,21 C-1.42034288e-15,9.40202025 9.40202025,2.13051432e-15 21,0 L21,0 Z M950,0 L950,720 L990,720 L990,0 L950,0 Z" id="path-1"></path>
        <filter x="-41.2%" y="-26.2%" width="182.4%" height="152.4%" filterUnits="objectBoundingBox" id="filter-3">
            <feGaussianBlur stdDeviation="47.7734375" in="SourceGraphic"></feGaussianBlur>
        </filter>
        <filter x="-17.4%" y="-107.8%" width="134.7%" height="315.5%" filterUnits="objectBoundingBox" id="filter-4">
            <feGaussianBlur stdDeviation="47.7734375" in="SourceGraphic"></feGaussianBlur>
        </filter>
        <path d="M8,0 L22,0 L22,0 C26.418278,-8.11624501e-16 30,3.581722 30,8 L30,34.989986 L30,34.989986 C30,39.408264 26.418278,42.989986 22,42.989986 L8,42.989986 L8,42.989986 C3.581722,42.989986 -3.47095419e-16,39.408264 -8.8817842e-16,34.989986 L0,8 L-8.8817842e-16,8 C-1.42926142e-15,3.581722 3.581722,8.11624501e-16 8,0 L8,0 Z M26.0992847,21.8747089 C26.0992847,21.8536312 26.0890142,21.8220148 26.1609074,21.8325536 C26.3457755,22.0854854 26.4998322,22.3594949 26.6436185,22.6335044 C26.9928138,23.3185282 27.2803863,24.0246295 27.3728204,24.7939639 C27.3933613,24.9415075 27.3728204,25.0995899 27.3830908,25.2471334 C27.3830908,25.2787499 27.3522795,25.3314441 27.4139022,25.3419829 C27.6706634,24.3197167 27.7117452,23.2763728 27.4755249,22.2435678 C27.1366001,20.7892098 26.2738823,19.7247883 25.0414284,18.9554539 C24.1992515,18.4390514 23.2851815,18.1123478 22.3300297,17.8910324 C22.2581366,17.8699548 22.2170548,17.8488771 22.2067844,17.7540277 C22.1965139,17.6275617 22.1657026,17.490557 22.0321867,17.4378629 C21.970564,17.4167852 21.9192118,17.3851687 21.8678595,17.3430134 C21.7446141,17.248164 21.6110983,17.1533145 21.467312,17.0900816 C21.3132553,17.0268486 21.169469,16.9846933 21.0256827,17.1427757 C21.0462236,16.2996696 20.9435191,15.4881799 20.7381101,14.6977679 C20.3991853,13.3698758 19.7932287,12.1895272 18.838077,11.2094163 C17.8829252,10.2293054 16.7223644,9.60751465 15.4385582,9.22811689 C14.5861109,8.98572387 13.7131227,8.84871913 12.8298641,8.79602499 C11.9774168,8.74333086 11.1249695,8.73279203 10.2827926,8.8381803 C8.99898646,8.98572387 7.78707343,9.40727694 6.68813535,10.1133783 C5.90758119,10.6087032 5.26054288,11.230494 4.78810221,12.0419836 C4.01781851,13.3804146 3.92538446,14.8347727 4.17187525,16.3312861 C4.23349795,16.3418249 4.19241615,16.2680531 4.2232275,16.2575143 C4.25403884,16.1310484 4.28485019,15.9940436 4.31566154,15.8570389 C4.31566154,15.8359612 4.29512064,15.7832671 4.34647289,15.7832671 C4.38755469,15.7832671 4.38755469,15.8359612 4.38755469,15.8675777 C4.40809559,16.0888931 4.38755469,16.3102084 4.33620244,16.5209849 C4.31566154,16.6158344 4.27457974,16.636912 4.19241615,16.6263732 C3.87403222,16.5947567 3.58645964,16.4999073 3.29888705,16.3629025 C3.16537121,16.2996696 3.05239627,16.2364366 2.89833953,16.152126 C3.16537121,16.5947567 3.53510739,16.8582274 3.96646626,17.0268486 C4.06917076,17.0690039 4.05890031,17.1006204 3.99727761,17.1743922 C3.68916413,17.5643288 3.29888705,17.8594159 2.86752818,18.0807313 C2.37454661,18.3336631 2.23076032,18.7868327 2.50806245,19.2821575 C2.56968515,19.4086235 2.64157829,19.5245506 2.74428279,19.6194 C2.93942132,19.7880212 2.92915088,19.9987978 2.87779863,20.2201131 C2.83671683,20.3887343 2.75455324,20.5362779 2.63130784,20.6416662 C2.52860335,20.7365156 2.5388738,20.8208262 2.56968515,20.9262145 C2.62103739,21.0737581 2.71347144,21.1686075 2.84698728,21.2318405 C2.87779863,21.2423793 2.91888043,21.2423793 2.93942132,21.2845346 C2.88806908,21.3161511 2.84698728,21.3477676 2.80590548,21.379384 C2.76482369,21.4110005 2.72374189,21.4531558 2.69293054,21.4953111 C2.5799556,21.6323159 2.59022605,21.7587818 2.72374189,21.8747089 C2.77509413,21.9168642 2.80590548,21.9695583 2.83671683,22.0222525 C3.01131447,22.3384173 3.01131447,22.6651209 2.88806908,23.0023634 C2.71347144,23.4766106 2.81617593,23.8981636 3.11401896,24.2775614 C3.3707802,24.5937262 3.73024593,24.7201921 4.11025255,24.8045027 C4.35674334,24.8677357 4.61350457,24.846658 4.85999536,24.8993522 C5.44541097,25.0363569 6.00001524,25.2471334 6.52380816,25.5527594 C6.98597838,25.8267689 7.39679635,26.1745502 7.69463939,26.6487974 C7.73572118,26.7120303 7.74599163,26.7541857 7.68436894,26.8174186 C6.85246254,27.7448354 6.05136749,28.7038686 5.30162468,29.7050571 C4.76756131,30.4322362 4.2437684,31.1594152 3.84322087,31.9709049 C3.68916413,32.2870697 3.55564829,32.6137733 3.50429604,32.9720934 C3.49402559,33.056404 3.50429604,33.0985593 3.60700053,33.0880205 C4.42863648,33.0353264 5.26054288,32.9615546 6.08217883,32.877244 C7.26328051,32.7613169 8.42384129,32.6243121 9.59467252,32.4556909 C11.227674,32.2238367 12.8606754,31.9392884 14.4628655,31.5177353 C15.3358537,31.2858811 16.188301,31.0224105 16.9996665,30.6008574 C17.3591322,30.4111585 17.6980571,30.200382 17.9650888,29.8842172 C18.016441,29.8209842 18.016441,29.7893677 17.9650888,29.7155959 C17.4721072,29.0727275 17.009937,28.4087814 16.6402008,27.6816024 C16.39371,27.1862775 16.1677601,26.669875 16.1164079,26.1007784 C16.0753261,25.700303 16.1574897,25.3419829 16.4758736,25.0679734 C16.6710121,24.8993522 16.8661507,24.7307309 17.0510188,24.5515709 C17.7596798,23.8876248 18.4477999,23.1920622 19.0024041,22.3700338 C19.2488949,22.0222525 19.4543039,21.6533935 19.5159266,21.2213016 C19.5878198,20.7048991 19.7418765,20.2201131 20.04999,19.79856 C20.2040467,19.5877835 20.3889148,19.4086235 20.6251351,19.2821575 C20.6559465,19.2716187 20.6867578,19.2294634 20.7175692,19.3032352 C20.7997328,19.5140117 20.8818964,19.5350894 21.0770349,19.4297011 C21.1181167,19.4086235 21.1489281,19.3664682 21.1900099,19.4297011 C21.3029848,19.5877835 21.467312,19.6194 21.6316392,19.5456282 C21.7548846,19.4823952 21.7959664,19.5456282 21.8370482,19.6404776 C22.1143503,20.2517296 22.3505706,20.8629815 22.5354387,21.50585 C22.8332818,22.538655 23.0284203,23.5819988 22.9154454,24.6569591 C22.8538227,25.2471334 22.6894955,25.8056913 22.3608411,26.3115549 C21.8986709,27.0071175 21.2413621,27.4181317 20.4710784,27.6605247 C20.2759399,27.7237577 20.0705309,27.765913 19.8753923,27.8186071 C20.4916193,28.0820778 21.0770349,27.8923789 21.672721,27.7132189 C21.4159598,28.0293837 21.1797394,28.3350097 20.9743304,28.6722521 C20.6045942,29.2940429 20.347833,29.957989 20.2964808,30.6957068 C20.2245876,31.6863565 20.5121602,32.5610792 21.056494,33.3725688 C21.0873054,33.4358018 21.1283872,33.4568794 21.1900099,33.4147241 C21.2824439,33.36203 21.3851484,33.3198747 21.4775824,33.2671805 C22.8949045,32.4873074 24.1581697,31.5177353 25.1544033,30.2109208 C25.7911712,29.3678147 26.2533414,28.4298591 26.4382095,27.3654376 C26.540914,26.7858021 26.5511844,26.2061667 26.5614549,25.6265312 C26.5819958,24.6358815 26.5306435,23.6452318 26.3252346,22.6756597 C26.2636119,22.4016502 26.1814483,22.1381796 26.0992847,21.8747089 Z" id="path-5"></path>
        <path d="M11.8221128,2.18862342 L2.28868201,2.18862342 C2.21184338,2.18862342 2.17342464,2.22731082 2.17342464,2.30468678 L2.17342464,9.63325913 C2.17342464,9.7106351 2.21184338,9.7493225 2.28868201,9.7493225 L11.8221128,9.7493225 L11.8221128,11.9379459 L2.28868201,11.9379459 C1.65201908,11.9379459 1.11141255,11.7141117 0.666846198,11.2664365 C0.222279843,10.8187612 0,10.2743742 0,9.63325913 L0,2.30468678 C0,1.66357166 0.222279843,1.11918467 0.666846198,0.671509458 C1.11141255,0.223834248 1.65201908,0 2.28868201,0 L11.8221128,0 L11.8221128,2.18862342 Z M25.3730862,2.32126726 L25.3730862,5.53788047 C25.3730862,6.16794187 25.1480621,6.70956548 24.6980073,7.16276755 C24.2479525,7.61596961 23.7046018,7.84256725 23.0679388,7.84256725 L22.4257906,7.84256725 L25.3730862,11.3742096 L25.3730862,11.9379459 L23.0020775,11.9379459 L19.5772871,7.84256725 L15.6914673,7.84256725 L15.6914673,11.9379459 L13.5180427,11.9379459 L13.5180427,0.0165804804 L23.0679388,0.0165804804 C23.7046018,0.0165804804 24.2479525,0.243178114 24.6980073,0.696380178 C25.1480621,1.14958224 25.3730862,1.69120585 25.3730862,2.32126726 Z M15.8067247,5.65394383 L23.0679388,5.65394383 C23.1447775,5.65394383 23.1831962,5.61525643 23.1831962,5.53788047 L23.1831962,2.32126726 C23.1831962,2.2438913 23.1447775,2.2052039 23.0679388,2.2052039 L15.8067247,2.2052039 C15.7298861,2.2052039 15.6914673,2.2438913 15.6914673,2.32126726 L15.6914673,5.53788047 C15.6914673,5.61525643 15.7298861,5.65394383 15.8067247,5.65394383 Z M37.0140803,0 L39.6156037,0 L34.1326461,7.47779668 L34.1326461,11.9379459 L31.9592215,11.9379459 L31.9592215,7.47779668 L26.4762638,0 L29.0613219,0 L33.0459338,5.07362701 L37.0140803,0 Z M40.3894746,0.0165804804 L49.9393708,0.0165804804 C50.5760337,0.0165804804 51.1193845,0.243178114 51.5694393,0.696380178 C52.0194941,1.14958224 52.2445181,1.69120585 52.2445181,2.32126726 L52.2445181,5.53788047 C52.2445181,6.16794187 52.0194941,6.70956548 51.5694393,7.16276755 C51.1193845,7.61596961 50.5760337,7.84256725 49.9393708,7.84256725 L42.6122953,7.85914773 L42.5628993,7.84256725 L42.5628993,11.9379459 L40.3894746,11.9379459 L40.3894746,0.0165804804 Z M50.0546282,5.53788047 L50.0546282,2.32126726 C50.0546282,2.2438913 50.0162094,2.2052039 49.9393708,2.2052039 L42.6781566,2.2052039 C42.601318,2.2052039 42.5628993,2.2438913 42.5628993,2.32126726 L42.5628993,5.53788047 C42.5628993,5.61525643 42.601318,5.65394383 42.6781566,5.65394383 L49.9393708,5.65394383 C50.0162094,5.65394383 50.0546282,5.61525643 50.0546282,5.53788047 Z M52.820805,0 L64.6758485,0 L64.6758485,2.18862342 L59.8515044,2.18862342 L59.8515044,11.9379459 L57.6616144,11.9379459 L57.6616144,2.18862342 L52.820805,2.18862342 L52.820805,0 Z M68.1665002,0 L75.4441797,0 C76.0698657,0 76.607728,0.223834248 77.0577828,0.671509458 C77.5078377,1.11918467 77.7328617,1.66357166 77.7328617,2.30468678 L77.7328617,9.63325913 C77.7328617,10.2743742 77.5078377,10.8187612 77.0577828,11.2664365 C76.607728,11.7141117 76.0698657,11.9379459 75.4441797,11.9379459 L68.1665002,11.9379459 C67.5298373,11.9379459 66.9892307,11.7141117 66.5446644,11.2664365 C66.100098,10.8187612 65.8778182,10.2743742 65.8778182,9.63325913 L65.8778182,2.30468678 C65.8778182,1.66357166 66.100098,1.11918467 66.5446644,0.671509458 C66.9892307,0.223834248 67.5298373,0 68.1665002,0 Z M68.1665002,9.7493225 L75.4441797,9.7493225 C75.5100414,9.7493225 75.5429717,9.7106351 75.5429717,9.63325913 L75.5429717,2.30468678 C75.5429717,2.22731082 75.5100414,2.18862342 75.4441797,2.18862342 L68.1665002,2.18862342 C68.0896616,2.18862342 68.0512428,2.22731082 68.0512428,2.30468678 L68.0512428,9.63325913 C68.0512428,9.7106351 68.0896616,9.7493225 68.1665002,9.7493225 Z M0,14.83318 L9.54989616,14.83318 C10.1865591,14.83318 10.7299098,15.0597777 11.1799646,15.5129797 C11.6300195,15.9661818 11.8550435,16.5078054 11.8550435,17.1378668 L11.8550435,20.35448 C11.8550435,20.9845414 11.6300195,21.526165 11.1799646,21.9793671 C10.7299098,22.4325692 10.1865591,22.6591668 9.54989616,22.6591668 L2.22282066,22.6757473 L2.17342464,22.6591668 L2.17342464,26.7545455 L0,26.7545455 L0,14.83318 Z M9.66515353,20.35448 L9.66515353,17.1378668 C9.66515353,17.0604908 9.62673479,17.0218034 9.54989616,17.0218034 L2.28868201,17.0218034 C2.21184338,17.0218034 2.17342464,17.0604908 2.17342464,17.1378668 L2.17342464,20.35448 C2.17342464,20.431856 2.21184338,20.4705434 2.28868201,20.4705434 L9.54989616,20.4705434 C9.62673479,20.4705434 9.66515353,20.431856 9.66515353,20.35448 Z M25.4154256,17.1378668 L25.4154256,20.35448 C25.4154256,20.9845414 25.1904016,21.526165 24.7403468,21.9793671 C24.2902919,22.4325692 23.7469412,22.6591668 23.1102783,22.6591668 L22.4681301,22.6591668 L25.4154256,26.1908091 L25.4154256,26.7545455 L23.0444169,26.7545455 L19.6196266,22.6591668 L15.7338068,22.6591668 L15.7338068,26.7545455 L13.5603821,26.7545455 L13.5603821,14.83318 L23.1102783,14.83318 C23.7469412,14.83318 24.2902919,15.0597777 24.7403468,15.5129797 C25.1904016,15.9661818 25.4154256,16.5078054 25.4154256,17.1378668 Z M15.8799429,20.4705434 L23.141157,20.4705434 C23.2179957,20.4705434 23.2564144,20.431856 23.2564144,20.35448 L23.2564144,17.1378668 C23.2564144,17.0604908 23.2179957,17.0218034 23.141157,17.0218034 L15.8799429,17.0218034 C15.8031043,17.0218034 15.7646855,17.0604908 15.7646855,17.1378668 L15.7646855,20.35448 C15.7646855,20.431856 15.8031043,20.4705434 15.8799429,20.4705434 Z M27.1207642,26.7545455 L27.1207642,14.8165995 L29.2941889,14.8165995 L29.2941889,26.7545455 L27.1207642,26.7545455 Z M40.664681,23.5710932 L40.664681,14.8165995 L42.854571,14.8165995 L42.854571,26.7545455 L40.4835623,26.7545455 L33.1729521,18.0000518 L33.1729521,26.7545455 L30.9995275,26.7545455 L30.9995275,14.8165995 L33.3705362,14.8165995 L40.664681,23.5710932 Z M44.5599096,14.8165995 L56.4149531,14.8165995 L56.4149531,17.005223 L51.590609,17.005223 L51.590609,26.7545455 L49.400719,26.7545455 L49.400719,17.005223 L44.5599096,17.005223 L44.5599096,14.8165995 Z M60.277251,24.5825025 L60.277251,26.7545455 L58.1202917,26.7545455 L58.1202917,24.5825025 L60.277251,24.5825025 Z M61.9825896,26.7545455 L61.9825896,14.8165995 L64.1560142,14.8165995 L64.1560142,26.7545455 L61.9825896,26.7545455 Z M68.1500349,14.8165995 L75.4277143,14.8165995 C76.0534003,14.8165995 76.5912627,15.0404338 77.0413175,15.488109 C77.4913723,15.9357842 77.7163964,16.4801712 77.7163964,17.1212863 L77.7163964,24.4498587 C77.7163964,25.0909738 77.4913723,25.6353608 77.0413175,26.083036 C76.5912627,26.5307112 76.0534003,26.7545455 75.4277143,26.7545455 L68.1500349,26.7545455 C67.5133719,26.7545455 66.9727654,26.5307112 66.528199,26.083036 C66.0836327,25.6353608 65.8613528,25.0909738 65.8613528,24.4498587 L65.8613528,17.1212863 C65.8613528,16.4801712 66.0836327,15.9357842 66.528199,15.488109 C66.9727654,15.0404338 67.5133719,14.8165995 68.1500349,14.8165995 Z M68.1486378,24.4939557 L75.4263173,24.4939557 C75.492179,24.4939557 75.5251093,24.4552683 75.5251093,24.3778923 L75.5251093,17.04932 C75.5251093,16.971944 75.492179,16.9332566 75.4263173,16.9332566 L68.1486378,16.9332566 C68.0717992,16.9332566 68.0333805,16.971944 68.0333805,17.04932 L68.0333805,24.3778923 C68.0333805,24.4552683 68.0717992,24.4939557 68.1486378,24.4939557 Z" id="path-7"></path>
    </defs>
    <g id="Print-Layouts" stroke="none" stroke-width="1" fill="none" fill-rule="evenodd">
        <g id="Layer-2---Phase-3---Front-Data-Placeholders">
            <rect id="Rectangle-2" stroke="#979797" x="0.5" y="0.5" width="1599" height="819"></rect>
            <g id="cristina-gottardi-177261-(1)" transform="translate(450.000000, 50.000000)">
                <mask id="mask-2" fill="white">
                    <use xlink:href="#path-1"></use>
                </mask>
                <g id="Combined-Shape"></g>
                <g id="pubkey/strip-back" mask="url(#mask-2)">
                    <g transform="translate(1030.000000, 0.000000)" id="pubkey/strip-front">
                        <g transform="translate(35.000000, 360.000000) rotate(180.000000) translate(-35.000000, -360.000000) ">
                            <g id="color/redish" fill-rule="evenodd" fill="#BA5983">
                                <rect id="Rectangle-2" x="0" y="2.84217094e-14" width="70" height="720"></rect>
                            </g>
                            <g id="Group-7" stroke-width="1" fill-rule="evenodd" transform="translate(2.000000, 262.609756)" fill="#FFFFFF">
                                <g id="Group-4" transform="translate(31.341463, 96.951220) rotate(-90.000000) translate(-31.341463, -96.951220) translate(-65.158537, 66.451220)">
                                    <g id="Group" transform="translate(0.000000, 0.000000)">
                                        <text id="Public-Key" font-family="Sarpanch-Bold, Sarpanch" font-size="29" font-weight="bold">
                                            <tspan x="9.9785" y="30.5609756">Private Key</tspan>
                                        </text>
                                        <text id="DEPOSIT-HERE" font-family="Sarpanch-Regular, Sarpanch" font-size="24" font-weight="normal">
                                            <tspan x="11.936" y="52.3292683">Fold to Reveal</tspan>
                                        </text>
                                    </g>
                                </g>
                            </g>
                            <text id="__PUBKEY__SUFFIX__" transform="translate(46.000000, 255.000000) rotate(-90.000000) translate(190.000000, -255.000000) " style="text-anchor: end;" font-family="Play-Bold, Play" font-size="40" font-weight="bold" fill="#FFFFFF">
                                <tspan x="48.64" y="257">MMMMMM</tspan>
                            </text>
                            <text id="__PUBKEY__PREFIX__" transform="translate(45.000000, 456.000000) rotate(-90.000000) translate(-35.000000, -456.000000) " font-family="Play-Bold, Play" font-size="40" font-weight="bold" fill="#FFFFFF">
                                <tspan x="-215" y="458">MMMMMM</tspan>
                            </text>
                        </g>
                    </g>
                </g>
                <rect id="Rectangle" fill="#FFFFFF" opacity="0.623697917" style="mix-blend-mode: hard-light;" filter="url(#filter-3)" mask="url(#mask-2)" x="550" y="173" width="348" height="547"></rect>
                <rect id="Rectangle-Copy-2" fill="#FFFFFF" opacity="0.623697917" style="mix-blend-mode: hard-light;" filter="url(#filter-4)" mask="url(#mask-2)" x="50" y="587" width="825" height="133"></rect>
                <g id="Group-8" mask="url(#mask-2)">
                    <g transform="translate(50.000000, 587.000000)">
                        <text id="Eli-Sklar-Crypto-Pri" font-family="Play-Regular, Play" font-size="17" font-weight="normal">
                            <tspan x="43.58" y="16" fill="#000000">Eli Sklar</tspan>
                            <tspan x="103.42" y="16" font-size="29" fill="#000000"></tspan>
                            <tspan x="0.06" y="36" font-size="15" fill="#000000">Crypto Print President</tspan>
                        </text>
                        <text id="Eli-Sklar" font-family="SnellRoundhand-Black, Snell Roundhand" font-size="27" font-weight="700">
                            <tspan x="26.1425" y="62" fill="#000000">E</tspan>
                            <tspan x="45.1505" y="62" font-family="SnellRoundhand, Snell Roundhand" font-weight="normal" fill="#000000">li </tspan>
                            <tspan x="65.8885" y="62" fill="#000000">S</tspan>
                            <tspan x="82.8965" y="62" font-family="SnellRoundhand, Snell Roundhand" font-weight="normal" fill="#000000">klar</tspan>
                        </text>
                    </g>
                </g>
                <g id="Group-8-Copy" mask="url(#mask-2)">
                    <g transform="translate(234.000000, 587.000000)">
                        <text id="Meni-Rosenfeld-IBA-C" font-family="Play-Regular, Play" font-size="17" font-weight="normal">
                            <tspan x="17.272" y="16" fill="#000000">Meni Rosenfeld</tspan>
                            <tspan x="135.728" y="16" font-size="29" fill="#000000"></tspan>
                            <tspan x="31.2525" y="36" font-size="15" fill="#000000">IBA Chairman</tspan>
                        </text>
                        <text id="Meni-Rosefeld" font-family="SnellRoundhand-Black, Snell Roundhand" font-size="27" font-weight="700">
                            <tspan x="0.1705" y="62" fill="#000000">M</tspan>
                            <tspan x="27.1705" y="62" font-family="SnellRoundhand, Snell Roundhand" font-weight="normal" fill="#000000">eni</tspan>
                            <tspan x="68.1435" y="62" fill="#000000">R</tspan>
                            <tspan x="88.8925" y="62" font-family="SnellRoundhand, Snell Roundhand" font-weight="normal" fill="#000000">osefeld</tspan>
                        </text>
                    </g>
                </g>
                <text id="T01-20170000000001" mask="url(#mask-2)" font-family="Sarpanch-Regular, Sarpanch" font-size="23" font-weight="normal" fill="#000000">
                    <tspan x="684.442" y="693">T01-20170000000001</tspan>
                </text>
                <text id="__THIS_ID__" font-family="Sarpanch-Regular, Sarpanch" font-size="23" font-weight="normal" fill="#4A4A4A">
                    <tspan  style="text-anchor: end;" x="940" y="39">Single Private/Public Key</tspan>
                    <tspan  style="text-anchor: end;" x="934" y="71">Copy 01/03</tspan>
                </text>
                <text id="2017-—-Tel-Aviv,-Isr" mask="url(#mask-2)" font-family="Play-Regular, Play" font-size="29" font-weight="normal" fill="#000000">
                    <tspan x="72" y="695">2017 — Tel Aviv, Israel</tspan>
                </text>
                <g id="logo/horizontal" mask="url(#mask-2)">
                    <g transform="translate(463.000000, 658.000000)">
                        <g id="logo/symbol">
                            <g id="color-pallete/dark-grey">
                                <mask id="mask-6" fill="white">
                                    <use xlink:href="#path-5"></use>
                                </mask>
                                <use id="Mask" fill="#545456" xlink:href="#path-5"></use>
                                <g id="color-pallete/dark-green-copy" mask="url(#mask-6)" fill="#000000">
                                    <rect id="Rectangle-3-Copy" x="0" y="0" width="30" height="43"></rect>
                                </g>
                            </g>
                        </g>
                        <g id="logo/text" transform="translate(39.659751, 7.908046)">
                            <g id="color-pallete/dark-grey">
                                <mask id="mask-8" fill="white">
                                    <use xlink:href="#path-7"></use>
                                </mask>
                                <use id="Mask" fill="#545456" xlink:href="#path-7"></use>
                                <g id="color-pallete/dark-green-copy" mask="url(#mask-8)" fill="#000000">
                                    <rect id="Rectangle-3-Copy" x="0" y="0" width="79" height="27"></rect>
                                </g>
                            </g>
                        </g>
                    </g>
                </g>
            </g>
            <g id="parts/qr-bars-back-placeholders" transform="translate(1000.000000, 50.000000)">
                <rect id="qr_placeholder" fill="#E43DB0" x="0" y="115" width="350" height="348"></rect>
                <g id="Privkey-Texts" stroke-width="1" transform="translate(0.000000, 475.000000)" font-size="12" font-family="AndaleMono, Andale Mono" font-weight="normal">
                    <g id="parts/privkey-text-line" transform="translate(0.000000, 96.000000)" fill="#4A4A4A">
                        <g id="Group">
                            <text id="29">
                                <tspan x="340.364931" y="11">w</tspan>
                            </text>
                            <text id="28">
                                <tspan x="328.295966" y="11">c</tspan>
                            </text>
                            <text id="27">
                                <tspan x="316.227" y="11">q</tspan>
                            </text>
                            <text id="26">
                                <tspan x="304.158035" y="11">m</tspan>
                            </text>
                            <text id="25">
                                <tspan x="292.089069" y="11">u</tspan>
                            </text>
                            <text id="24">
                                <tspan x="280.020104" y="11">b</tspan>
                            </text>
                            <text id="23">
                                <tspan x="267.951138" y="11">n</tspan>
                            </text>
                            <text id="22">
                                <tspan x="255.882173" y="11">Y</tspan>
                            </text>
                            <text id="21">
                                <tspan x="243.813207" y="11">n</tspan>
                            </text>
                            <text id="20">
                                <tspan x="231.744242" y="11">r</tspan>
                            </text>
                            <text id="19">
                                <tspan x="219.675276" y="11">r</tspan>
                            </text>
                            <text id="18">
                                <tspan x="207.606311" y="11">u</tspan>
                            </text>
                            <text id="17">
                                <tspan x="195.537345" y="11">J</tspan>
                            </text>
                            <text id="16">
                                <tspan x="183.46838" y="11">D</tspan>
                            </text>
                            <text id="15">
                                <tspan x="171.399414" y="11">Y</tspan>
                            </text>
                            <text id="14">
                                <tspan x="159.330449" y="11">m</tspan>
                            </text>
                            <text id="13">
                                <tspan x="147.261483" y="11">E</tspan>
                            </text>
                            <text id="12">
                                <tspan x="135.192518" y="11">n</tspan>
                            </text>
                            <text id="11">
                                <tspan x="123.123552" y="11">4</tspan>
                            </text>
                            <text id="10">
                                <tspan x="111.054586" y="11">8</tspan>
                            </text>
                            <text id="9">
                                <tspan x="98.985621" y="11">G</tspan>
                            </text>
                            <text id="8">
                                <tspan x="86.9166554" y="11">i</tspan>
                            </text>
                            <text id="7">
                                <tspan x="74.8476899" y="11">J</tspan>
                            </text>
                            <text id="6">
                                <tspan x="62.7787244" y="11">R</tspan>
                            </text>
                            <text id="5">
                                <tspan x="50.7097589" y="11">X</tspan>
                            </text>
                            <text id="4">
                                <tspan x="38.6407934" y="11">f</tspan>
                            </text>
                            <text id="3">
                                <tspan x="26.5718279" y="11">n</tspan>
                            </text>
                            <text id="2">
                                <tspan x="14.5028623" y="11">q</tspan>
                            </text>
                            <text id="1">
                                <tspan x="2.43389682" y="11">q</tspan>
                            </text>
                        </g>
                    </g>
                    <g id="parts/privkey-text-line" transform="translate(0.000000, 72.000000)" fill="#4A4A4A">
                        <g id="Group">
                            <text id="29">
                                <tspan x="340.364931" y="11">w</tspan>
                            </text>
                            <text id="28">
                                <tspan x="328.295966" y="11">c</tspan>
                            </text>
                            <text id="27">
                                <tspan x="316.227" y="11">q</tspan>
                            </text>
                            <text id="26">
                                <tspan x="304.158035" y="11">m</tspan>
                            </text>
                            <text id="25">
                                <tspan x="292.089069" y="11">u</tspan>
                            </text>
                            <text id="24">
                                <tspan x="280.020104" y="11">b</tspan>
                            </text>
                            <text id="23">
                                <tspan x="267.951138" y="11">n</tspan>
                            </text>
                            <text id="22">
                                <tspan x="255.882173" y="11">Y</tspan>
                            </text>
                            <text id="21">
                                <tspan x="243.813207" y="11">n</tspan>
                            </text>
                            <text id="20">
                                <tspan x="231.744242" y="11">r</tspan>
                            </text>
                            <text id="19">
                                <tspan x="219.675276" y="11">r</tspan>
                            </text>
                            <text id="18">
                                <tspan x="207.606311" y="11">u</tspan>
                            </text>
                            <text id="17">
                                <tspan x="195.537345" y="11">J</tspan>
                            </text>
                            <text id="16">
                                <tspan x="183.46838" y="11">D</tspan>
                            </text>
                            <text id="15">
                                <tspan x="171.399414" y="11">Y</tspan>
                            </text>
                            <text id="14">
                                <tspan x="159.330449" y="11">m</tspan>
                            </text>
                            <text id="13">
                                <tspan x="147.261483" y="11">E</tspan>
                            </text>
                            <text id="12">
                                <tspan x="135.192518" y="11">n</tspan>
                            </text>
                            <text id="11">
                                <tspan x="123.123552" y="11">4</tspan>
                            </text>
                            <text id="10">
                                <tspan x="111.054586" y="11">8</tspan>
                            </text>
                            <text id="9">
                                <tspan x="98.985621" y="11">G</tspan>
                            </text>
                            <text id="8">
                                <tspan x="86.9166554" y="11">i</tspan>
                            </text>
                            <text id="7">
                                <tspan x="74.8476899" y="11">J</tspan>
                            </text>
                            <text id="6">
                                <tspan x="62.7787244" y="11">R</tspan>
                            </text>
                            <text id="5">
                                <tspan x="50.7097589" y="11">X</tspan>
                            </text>
                            <text id="4">
                                <tspan x="38.6407934" y="11">f</tspan>
                            </text>
                            <text id="3">
                                <tspan x="26.5718279" y="11">n</tspan>
                            </text>
                            <text id="2">
                                <tspan x="14.5028623" y="11">q</tspan>
                            </text>
                            <text id="1">
                                <tspan x="2.43389682" y="11">q</tspan>
                            </text>
                        </g>
                    </g>
                    <g id="parts/privkey-text-line" transform="translate(0.000000, 48.000000)" fill="#4A4A4A">
                        <g id="Group">
                            <text id="29">
                                <tspan x="340.364931" y="11">w</tspan>
                            </text>
                            <text id="28">
                                <tspan x="328.295966" y="11">c</tspan>
                            </text>
                            <text id="27">
                                <tspan x="316.227" y="11">q</tspan>
                            </text>
                            <text id="26">
                                <tspan x="304.158035" y="11">m</tspan>
                            </text>
                            <text id="25">
                                <tspan x="292.089069" y="11">u</tspan>
                            </text>
                            <text id="24">
                                <tspan x="280.020104" y="11">b</tspan>
                            </text>
                            <text id="23">
                                <tspan x="267.951138" y="11">n</tspan>
                            </text>
                            <text id="22">
                                <tspan x="255.882173" y="11">Y</tspan>
                            </text>
                            <text id="21">
                                <tspan x="243.813207" y="11">n</tspan>
                            </text>
                            <text id="20">
                                <tspan x="231.744242" y="11">r</tspan>
                            </text>
                            <text id="19">
                                <tspan x="219.675276" y="11">r</tspan>
                            </text>
                            <text id="18">
                                <tspan x="207.606311" y="11">u</tspan>
                            </text>
                            <text id="17">
                                <tspan x="195.537345" y="11">J</tspan>
                            </text>
                            <text id="16">
                                <tspan x="183.46838" y="11">D</tspan>
                            </text>
                            <text id="15">
                                <tspan x="171.399414" y="11">Y</tspan>
                            </text>
                            <text id="14">
                                <tspan x="159.330449" y="11">m</tspan>
                            </text>
                            <text id="13">
                                <tspan x="147.261483" y="11">E</tspan>
                            </text>
                            <text id="12">
                                <tspan x="135.192518" y="11">n</tspan>
                            </text>
                            <text id="11">
                                <tspan x="123.123552" y="11">4</tspan>
                            </text>
                            <text id="10">
                                <tspan x="111.054586" y="11">8</tspan>
                            </text>
                            <text id="9">
                                <tspan x="98.985621" y="11">G</tspan>
                            </text>
                            <text id="8">
                                <tspan x="86.9166554" y="11">i</tspan>
                            </text>
                            <text id="7">
                                <tspan x="74.8476899" y="11">J</tspan>
                            </text>
                            <text id="6">
                                <tspan x="62.7787244" y="11">R</tspan>
                            </text>
                            <text id="5">
                                <tspan x="50.7097589" y="11">X</tspan>
                            </text>
                            <text id="4">
                                <tspan x="38.6407934" y="11">f</tspan>
                            </text>
                            <text id="3">
                                <tspan x="26.5718279" y="11">n</tspan>
                            </text>
                            <text id="2">
                                <tspan x="14.5028623" y="11">q</tspan>
                            </text>
                            <text id="1">
                                <tspan x="2.43389682" y="11">q</tspan>
                            </text>
                        </g>
                    </g>
                    <g id="parts/privkey-text-line" transform="translate(0.000000, 24.000000)" fill="#4A4A4A">
                        <g id="Group">
                            <text id="29">
                                <tspan x="340.364931" y="11">w</tspan>
                            </text>
                            <text id="28">
                                <tspan x="328.295966" y="11">c</tspan>
                            </text>
                            <text id="27">
                                <tspan x="316.227" y="11">q</tspan>
                            </text>
                            <text id="26">
                                <tspan x="304.158035" y="11">m</tspan>
                            </text>
                            <text id="25">
                                <tspan x="292.089069" y="11">u</tspan>
                            </text>
                            <text id="24">
                                <tspan x="280.020104" y="11">b</tspan>
                            </text>
                            <text id="23">
                                <tspan x="267.951138" y="11">n</tspan>
                            </text>
                            <text id="22">
                                <tspan x="255.882173" y="11">Y</tspan>
                            </text>
                            <text id="21">
                                <tspan x="243.813207" y="11">n</tspan>
                            </text>
                            <text id="20">
                                <tspan x="231.744242" y="11">r</tspan>
                            </text>
                            <text id="19">
                                <tspan x="219.675276" y="11">r</tspan>
                            </text>
                            <text id="18">
                                <tspan x="207.606311" y="11">u</tspan>
                            </text>
                            <text id="17">
                                <tspan x="195.537345" y="11">J</tspan>
                            </text>
                            <text id="16">
                                <tspan x="183.46838" y="11">D</tspan>
                            </text>
                            <text id="15">
                                <tspan x="171.399414" y="11">Y</tspan>
                            </text>
                            <text id="14">
                                <tspan x="159.330449" y="11">m</tspan>
                            </text>
                            <text id="13">
                                <tspan x="147.261483" y="11">E</tspan>
                            </text>
                            <text id="12">
                                <tspan x="135.192518" y="11">n</tspan>
                            </text>
                            <text id="11">
                                <tspan x="123.123552" y="11">4</tspan>
                            </text>
                            <text id="10">
                                <tspan x="111.054586" y="11">8</tspan>
                            </text>
                            <text id="9">
                                <tspan x="98.985621" y="11">G</tspan>
                            </text>
                            <text id="8">
                                <tspan x="86.9166554" y="11">i</tspan>
                            </text>
                            <text id="7">
                                <tspan x="74.8476899" y="11">J</tspan>
                            </text>
                            <text id="6">
                                <tspan x="62.7787244" y="11">R</tspan>
                            </text>
                            <text id="5">
                                <tspan x="50.7097589" y="11">X</tspan>
                            </text>
                            <text id="4">
                                <tspan x="38.6407934" y="11">f</tspan>
                            </text>
                            <text id="3">
                                <tspan x="26.5718279" y="11">n</tspan>
                            </text>
                            <text id="2">
                                <tspan x="14.5028623" y="11">q</tspan>
                            </text>
                            <text id="1">
                                <tspan x="2.43389682" y="11">q</tspan>
                            </text>
                        </g>
                    </g>
                    <g id="parts/privkey-text-line" fill="#4A4A4A">
                        <g id="Group">
                            <text id="29">
                                <tspan x="340.364931" y="11">w</tspan>
                            </text>
                            <text id="28">
                                <tspan x="328.295966" y="11">c</tspan>
                            </text>
                            <text id="27">
                                <tspan x="316.227" y="11">q</tspan>
                            </text>
                            <text id="26">
                                <tspan x="304.158035" y="11">m</tspan>
                            </text>
                            <text id="25">
                                <tspan x="292.089069" y="11">u</tspan>
                            </text>
                            <text id="24">
                                <tspan x="280.020104" y="11">b</tspan>
                            </text>
                            <text id="23">
                                <tspan x="267.951138" y="11">n</tspan>
                            </text>
                            <text id="22">
                                <tspan x="255.882173" y="11">Y</tspan>
                            </text>
                            <text id="21">
                                <tspan x="243.813207" y="11">n</tspan>
                            </text>
                            <text id="20">
                                <tspan x="231.744242" y="11">r</tspan>
                            </text>
                            <text id="19">
                                <tspan x="219.675276" y="11">r</tspan>
                            </text>
                            <text id="18">
                                <tspan x="207.606311" y="11">u</tspan>
                            </text>
                            <text id="17">
                                <tspan x="195.537345" y="11">J</tspan>
                            </text>
                            <text id="16">
                                <tspan x="183.46838" y="11">D</tspan>
                            </text>
                            <text id="15">
                                <tspan x="171.399414" y="11">Y</tspan>
                            </text>
                            <text id="14">
                                <tspan x="159.330449" y="11">m</tspan>
                            </text>
                            <text id="13">
                                <tspan x="147.261483" y="11">E</tspan>
                            </text>
                            <text id="12">
                                <tspan x="135.192518" y="11">n</tspan>
                            </text>
                            <text id="11">
                                <tspan x="123.123552" y="11">4</tspan>
                            </text>
                            <text id="10">
                                <tspan x="111.054586" y="11">8</tspan>
                            </text>
                            <text id="9">
                                <tspan x="98.985621" y="11">G</tspan>
                            </text>
                            <text id="8">
                                <tspan x="86.9166554" y="11">i</tspan>
                            </text>
                            <text id="7">
                                <tspan x="74.8476899" y="11">J</tspan>
                            </text>
                            <text id="6">
                                <tspan x="62.7787244" y="11">R</tspan>
                            </text>
                            <text id="5">
                                <tspan x="50.7097589" y="11">X</tspan>
                            </text>
                            <text id="4">
                                <tspan x="38.6407934" y="11">f</tspan>
                            </text>
                            <text id="3">
                                <tspan x="26.5718279" y="11">n</tspan>
                            </text>
                            <text id="2">
                                <tspan x="14.5028623" y="11">q</tspan>
                            </text>
                            <text id="1">
                                <tspan x="2.43389682" y="11">q</tspan>
                            </text>
                        </g>
                    </g>
                </g>
            </g>
        </g>
    </g>
</svg>