<?xml version="1.0" encoding="UTF-8"?>
<svg width="485px" height="485px" viewBox="0 0 485 485" version="1.1" xmlns="http://www.w3.org/2000/svg" xmlns:xlink="http://www.w3.org/1999/xlink">
    <!-- Generator: Sketch 48.1 (47250) - http://www.bohemiancoding.com/sketch -->
    <title>favicon</title>
    <desc>Created with Sketch.</desc>
    <defs>
        <linearGradient x1="-1.11022302e-14%" y1="1.72254642e-14%" x2="100%" y2="100%" id="linearGradient-1">
            <stop stop-color="#4389A2" offset="0%"></stop>
            <stop stop-color="#5C258D" offset="100%"></stop>
        </linearGradient>
    </defs>
    <g id="Page-4" stroke="none" stroke-width="1" fill="none" fill-rule="evenodd">
        <g id="favicon">
            <circle id="Oval" fill="url(#linearGradient-1)" cx="242.5" cy="242.5" r="242.5"></circle>
            <path d="M435.685493,252.723353 C436.932731,256.683154 438.179969,260.642955 439.115398,264.761149 C442.233493,279.333217 443.013017,294.222069 442.701207,309.110922 C442.545302,317.822485 442.389398,326.534047 440.83035,335.24561 C438.024065,351.243207 431.008351,365.340099 421.342256,378.011463 C406.219495,397.652076 387.04321,412.224145 365.528354,423.945156 C364.125211,424.737116 362.566164,425.370685 361.163021,426.162645 C360.227593,426.796213 359.603974,426.479429 359.136259,425.529077 C350.873307,413.332889 346.507974,400.186349 347.599308,385.297497 C348.378831,374.210053 352.27645,364.231354 357.889021,354.886224 C361.007116,349.817678 364.592926,345.224309 368.490545,340.472547 C359.448069,343.165212 350.561498,346.016269 341.207213,342.056468 C344.169403,341.264508 347.287498,340.630939 350.249688,339.680587 C361.942545,336.03757 371.920449,329.86028 378.936163,319.406405 C383.925115,311.803587 386.419591,303.408808 387.35502,294.538854 C389.069972,278.382865 386.107782,262.702052 381.586544,247.179631 C378.780258,237.517717 375.194449,228.330978 370.985021,219.144239 C370.361402,217.718711 369.737783,216.768358 367.866926,217.718711 C365.372449,218.827455 362.877973,218.352279 361.163021,215.976398 C360.539402,215.026046 360.071688,215.659614 359.448069,215.976398 C356.485879,217.560319 355.238641,217.243534 353.991402,214.075694 C353.523688,212.966949 353.055974,213.600517 352.58826,213.758909 C349.00245,215.659614 346.196165,218.352279 343.857594,221.52012 C339.180451,227.855802 336.84188,235.141836 335.750546,242.903046 C334.815118,249.39712 331.697023,254.940842 327.955309,260.167779 C319.536452,272.522359 309.090834,282.976234 298.333406,292.954933 C295.52712,295.647598 292.56493,298.181871 289.602739,300.716143 C284.769692,304.834337 283.522454,310.219666 284.146073,316.238564 C284.925597,324.791735 288.355501,332.552945 292.097215,339.997371 C297.709787,350.926422 304.7255,360.905121 312.208929,370.567036 C312.988452,371.675781 312.988452,372.150957 312.208929,373.101309 C308.155405,377.85307 303.010548,381.020911 297.553882,383.871968 C285.237406,390.20765 272.297312,394.167451 259.045408,397.652076 C234.724266,403.987758 209.93541,408.264344 185.146555,411.748969 C167.373413,414.283241 149.756176,416.342338 131.827129,418.084651 C119.354749,419.351787 106.726464,420.460531 94.2540833,421.252491 C92.6950358,421.410884 92.539131,420.777315 92.6950358,419.510179 C93.4745595,414.124849 95.5013213,409.214696 97.8398926,404.462934 C103.920178,392.266747 111.87132,381.337696 119.978368,370.408644 C131.359415,355.3614 143.519985,340.947723 156.14827,327.009223 C157.083699,326.058871 156.927794,325.425303 156.304175,324.474951 C151.782937,317.347308 145.546747,312.120371 138.531033,308.002178 C130.579891,303.408808 122.161034,300.240967 113.274463,298.181871 C109.532749,297.38991 105.63513,297.706695 101.893416,296.756342 C96.1249403,295.489206 90.668274,293.588501 86.7706551,288.83674 C82.2494173,283.134626 80.6903698,276.798944 83.3407506,269.671302 C85.2116076,264.602757 85.2116076,259.692603 82.5612268,254.940842 C82.0935125,254.148882 81.6257983,253.356921 80.8462745,252.723353 C78.8195127,250.981041 78.663608,249.080336 80.3785602,247.021239 C80.8462745,246.387671 81.4698935,245.754103 82.0935125,245.278927 C82.7171315,244.803751 83.3407506,244.328575 84.1202743,243.853398 C83.8084648,243.21983 83.1848458,243.21983 82.7171315,243.061438 C80.6903698,242.111086 79.287227,240.685557 78.5077032,238.468069 C78.0399889,236.884148 77.8840842,235.617012 79.4431317,234.191484 C81.3139888,232.607563 82.5612268,230.390074 83.1848458,227.855802 C83.9643696,224.529569 84.1202743,221.361728 81.158084,218.827455 C79.5990365,217.401927 78.5077032,215.659614 77.5722747,213.758909 C73.3628463,206.314483 75.5455129,199.503625 83.0289411,195.702216 C89.5769407,192.375983 95.5013213,187.941006 100.178464,182.0805 C101.113892,180.971756 101.269797,180.496579 99.7107497,179.863011 C93.16275,177.328739 87.5501789,173.368937 83.4966553,166.716471 C85.8352266,167.983608 87.5501789,168.93396 89.5769407,169.884312 C93.9422738,171.943409 98.3076069,173.368937 103.140654,173.844114 C104.387892,174.002506 105.011511,173.685721 105.323321,172.260193 C106.102845,169.092352 106.414654,165.766119 106.102845,162.439886 C106.102845,161.96471 106.102845,161.17275 105.479226,161.17275 C104.699702,161.17275 105.011511,161.96471 105.011511,162.281494 C104.543797,164.340591 104.076083,166.399687 103.608369,168.300392 C103.140654,168.458784 103.764273,169.567528 102.828845,169.409136 C99.0871307,146.917465 100.490273,125.059363 112.18313,104.943573 C119.354749,92.7473853 129.176748,83.4022545 141.025509,75.9578282 C157.707318,65.3455611 176.104079,59.0098792 195.592173,56.7923905 C208.376363,55.20847 221.316457,55.3668621 234.256552,56.1588223 C247.664361,56.9507826 260.916265,59.0098792 273.856359,62.6528963 C293.344453,68.35501 310.961691,77.7001408 325.460833,92.4306012 C339.959975,107.161062 349.158355,124.900971 354.303212,144.858369 C357.421307,156.737772 358.980355,168.93396 358.668545,181.605324 C360.851212,179.229443 363.033878,179.863011 365.372449,180.813364 C367.555116,181.763716 369.581878,183.189244 371.452735,184.614773 C372.232259,185.248341 373.011782,185.723517 373.947211,186.040301 C375.973973,186.832261 376.441687,188.891358 376.597592,190.792063 C376.753496,192.217591 377.377116,192.534375 378.468449,192.851159 C392.967591,196.177392 406.843114,201.087546 419.627304,208.848756 C438.335874,220.411375 451.431873,236.408972 456.57673,258.267075 C460.16254,273.789495 459.538921,289.470308 455.641302,304.834337 C454.705873,304.675945 455.173587,303.883984 455.173587,303.408808 C455.017683,301.19132 455.329492,298.815439 455.017683,296.59795 C453.61454,285.035331 449.249207,274.423064 443.948445,264.12758 C441.765779,260.009387 439.427207,255.891194 436.620922,252.089785 C435.529589,251.931393 435.685493,252.406569 435.685493,252.723353 Z" id="Shape" fill="#FFFFFF"></path>
        </g>
    </g>
</svg>