<?xml version="1.0" encoding="UTF-8"?>
<svg width="40px" height="41px" viewBox="0 0 40 41" version="1.1" xmlns="http://www.w3.org/2000/svg" xmlns:xlink="http://www.w3.org/1999/xlink">
    <!-- Generator: Sketch 48.2 (47327) - http://www.bohemiancoding.com/sketch -->
    <title>005-facebook</title>
    <desc>Created with Sketch.</desc>
    <defs></defs>
    <g id="02_Color" stroke="none" stroke-width="1" fill="none" fill-rule="evenodd" transform="translate(-1525.000000, -11430.000000)">
        <g id="005-facebook" transform="translate(1525.062070, 11430.465277)" fill="#FFFFFF" fill-rule="nonzero">
            <path d="M19.8576991,39.7153982 C8.89059473,39.7153982 0,30.8248035 0,19.8576991 C0,8.89059473 8.89059473,0 19.8576991,0 C30.8248035,0 39.7153982,8.89059473 39.7153982,19.8576991 C39.7153982,30.8248035 30.8248035,39.7153982 19.8576991,39.7153982 Z M24.8499115,20.6350442 L25.3189381,16.0771681 L21.3069027,16.0771681 L21.3069027,13.3922124 C21.3069027,12.3851327 21.9723894,12.1486726 22.4456637,12.1486726 L25.3309735,12.1486726 L25.3309735,7.72035398 L21.3543363,7.70371681 C16.940885,7.70371681 15.9380531,11.0095575 15.9380531,13.120708 L15.9380531,16.0729204 L13.3847788,16.0729204 L13.3847788,20.6350442 L15.9380531,20.6350442 L15.9380531,33.6162832 L21.3065487,33.6162832 L21.3065487,20.6350442 L24.8499115,20.6350442 Z" id="Oval"></path>
        </g>
    </g>
</svg>