<?xml version="1.0" encoding="UTF-8"?>
<svg width="40px" height="41px" viewBox="0 0 40 41" version="1.1" xmlns="http://www.w3.org/2000/svg" xmlns:xlink="http://www.w3.org/1999/xlink">
    <!-- Generator: Sketch 48.2 (47327) - http://www.bohemiancoding.com/sketch -->
    <title>001-google-plus</title>
    <desc>Created with Sketch.</desc>
    <defs></defs>
    <g id="02_Color" stroke="none" stroke-width="1" fill="none" fill-rule="evenodd" transform="translate(-1725.000000, -11430.000000)">
        <g id="001-google-plus" transform="translate(1725.062070, 11430.165277)">
            <path d="M19.8576991,40.0690265 C8.89059473,40.0690265 0,31.1784318 0,20.2113274 C0,9.24422305 8.89059473,0.353628319 19.8576991,0.353628319 C30.8248035,0.353628319 39.7153982,9.24422305 39.7153982,20.2113274 C39.7153982,31.1784318 30.8248035,40.0690265 19.8576991,40.0690265 Z M6.91362832,21.100177 C6.84318584,24.5168142 9.19681416,27.7773451 12.4332743,28.840354 C15.4828319,29.8647788 19.2315044,29.0984071 21.260531,26.4870796 C22.7423009,24.6576991 23.0785841,22.2184071 22.9182301,19.939115 C20.3069027,19.9157522 17.6955752,19.9235398 15.0881416,19.9274336 C15.0842478,20.8576991 15.0881416,21.7844248 15.0920354,22.7146903 C16.6555752,22.7578761 18.219469,22.7384071 19.7830088,22.7695575 C19.3883186,24.1221239 18.4888496,25.380885 17.1246018,25.8693805 C14.4899115,27.0304425 11.1281416,25.5136283 10.299115,22.7497345 C9.2980531,20.1033628 10.9362832,16.9093805 13.6414159,16.139115 C15.3185841,15.5490265 17.0463717,16.2134513 18.4814159,17.0853097 C19.2081416,16.4049558 19.8884956,15.6782301 20.5571681,14.9430088 C18.9270796,13.5787611 16.8315044,12.7423009 14.6775221,12.9260177 C10.4513274,12.9766372 6.75327434,16.8782301 6.91362832,21.100177 Z M28.000708,17.5815929 C27.9925664,18.359646 27.9847788,19.1415929 27.980885,19.9189381 C27.199292,19.9267257 26.4212389,19.9306195 25.6431858,19.9345133 C25.6431858,20.7125664 25.6431858,21.4863717 25.6431858,22.2644248 C26.4212389,22.2686726 27.2031858,22.2722124 27.980885,22.280354 C27.9890265,23.0584071 27.9890265,23.8361062 27.9964602,24.6180531 C28.7702655,24.6180531 29.5486726,24.6141593 30.3263717,24.6180531 C30.3306195,23.8361062 30.3345133,23.0584071 30.3423009,22.2764602 C31.120354,22.2725664 31.9023009,22.2686726 32.68,22.2647788 C32.68,21.4867257 32.68,20.7129204 32.68,19.9348673 C31.9019469,19.9309735 31.12,19.9270796 30.3423009,19.919292 C30.3380531,19.1415929 30.3306195,18.359646 30.3263717,17.5815929 C29.5486726,17.5815929 28.7748673,17.5815929 28.000708,17.5815929 Z" id="XMLID_30_" fill="#FFFFFF" fill-rule="nonzero"></path>
            <g id="Group" transform="translate(6.725664, 12.743363)">
                <g></g>
            </g>
        </g>
    </g>
</svg>