<?xml version="1.0" encoding="UTF-8"?>
<svg width="40px" height="41px" viewBox="0 0 40 41" version="1.1" xmlns="http://www.w3.org/2000/svg" xmlns:xlink="http://www.w3.org/1999/xlink">
    <!-- Generator: Sketch 48.2 (47327) - http://www.bohemiancoding.com/sketch -->
    <title>002-linkedin</title>
    <desc>Created with Sketch.</desc>
    <defs></defs>
    <g id="02_Color" stroke="none" stroke-width="1" fill="none" fill-rule="evenodd" transform="translate(-1675.000000, -11430.000000)">
        <g id="002-linkedin" transform="translate(1675.062070, 11430.165277)" fill="#FFFFFF" fill-rule="nonzero">
            <path d="M19.8576991,40.0690265 C8.89059473,40.0690265 0,31.1784318 0,20.2113274 C0,9.24422305 8.89059473,0.353628319 19.8576991,0.353628319 C30.8248035,0.353628319 39.7153982,9.24422305 39.7153982,20.2113274 C39.7153982,31.1784318 30.8248035,40.0690265 19.8576991,40.0690265 Z M31.7224779,21.8092035 C31.7224779,17.4251327 29.3812389,15.3847788 26.2584071,15.3847788 C23.7362832,15.3847788 22.6113274,16.7723894 21.980531,17.7430088 L21.980531,17.7897345 L21.9490265,17.7897345 C21.9575221,17.7745133 21.9709735,17.7589381 21.980531,17.7430088 L21.980531,15.72 L17.2332743,15.72 C17.2969912,17.059115 17.2332743,29.9957522 17.2332743,29.9957522 L21.980177,29.9957522 L21.980177,22.0226549 C21.980177,21.5946903 22.0123894,21.1709735 22.1373451,20.8658407 C22.4814159,20.0120354 23.260531,19.1302655 24.5720354,19.1302655 C26.2906195,19.1302655 26.9759292,20.44 26.9759292,22.3578761 L26.9759292,29.9961062 L31.7224779,29.9961062 L31.7224779,21.8092035 Z M12.2676106,8.83858407 C10.6438938,8.83858407 9.58159292,9.90442478 9.58159292,11.3047788 C9.58159292,12.6753982 10.6130973,13.7720354 12.2053097,13.7720354 L12.2361062,13.7720354 C13.8916814,13.7720354 14.9210619,12.6753982 14.9210619,11.3047788 C14.8895575,9.90442478 13.8916814,8.83858407 12.2676106,8.83858407 Z M9.86371681,29.9961062 L14.6088496,29.9961062 L14.6088496,15.72 L9.86371681,15.72 L9.86371681,29.9961062 Z" id="Oval"></path>
        </g>
    </g>
</svg>